<?xml version="1.0" encoding="UTF-8"?>
<svg width="18px" height="34px" viewBox="0 0 18 34" version="1.1" xmlns="http://www.w3.org/2000/svg" xmlns:xlink="http://www.w3.org/1999/xlink">
    <!-- Generator: Sketch 57.1 (83088) - https://sketch.com -->
    <title>Element 15</title>
    <desc>Created with Sketch.</desc>
    <defs>
        <linearGradient x1="29.9673834%" y1="35.8506484%" x2="52.9563221%" y2="51.3252298%" id="linearGradient-1">
            <stop stop-color="#FEA289" offset="0%"></stop>
            <stop stop-color="#A250FF" offset="21%"></stop>
            <stop stop-color="#FCC9A9" offset="42%"></stop>
            <stop stop-color="#DE8F5E" offset="63%"></stop>
            <stop stop-color="#DBAF0E" offset="83%"></stop>
            <stop stop-color="#EEBC2A" offset="100%"></stop>
        </linearGradient>
    </defs>
    <g id="Page-1" stroke="none" stroke-width="1" fill="none" fill-rule="evenodd">
        <g id="Artboard" transform="translate(-1.000000, 0.000000)" fill="url(#linearGradient-1)" fill-rule="nonzero">
            <g id="Element-15" transform="translate(1.000000, 0.000000)">
                <path d="M0.573186339,33.3746019 C3.96012598,29.373358 7.28218172,25.3758223 10.4874464,21.3486204 C12.5333055,18.8861556 14.3038637,16.3520166 15.7884612,13.7614609 C18.2151191,9.27443105 18.9872375,4.49073811 16.3464627,0 C15.9966814,0.499724441 15.5756839,0.982187435 15.087715,1.44252446 C14.1144565,2.60939943 13.1433608,3.77998269 12.1744279,4.95427424 C11.2141461,6.1260936 10.2279108,7.30162125 9.31953622,8.48085718 C9.09244257,8.76639544 8.0218582,9.67863456 8.19055634,9.96417282 C9.9427076,13.0931984 10.3324698,16.4193166 9.32602461,19.6539323 C8.83783531,21.3467407 8.10650014,23.0136903 7.13943714,24.6378728 C6.54250525,25.6502357 5.84175912,26.6440572 5.14750137,27.6341704 L4.81659348,28.0828734 C3.91254445,29.2645815 4.45756922,28.6082143 6.45166779,26.1137719 C8.51930144,23.6119128 9.03837265,22.972851 8.00888142,24.1965864 L7.54820572,24.7417049 C5.61033987,26.9988169 3.72870673,29.2658176 1.90330631,31.5427071 C1.29339764,32.3029064 0.605628289,33.0593974 0.0865570799,33.8418464 C-0.289769547,34.4203395 0.689977361,33.2151455 0.573186339,33.3560605 L0.573186339,33.3746019 Z" id="_Pfad_"></path>
            </g>
        </g>
    </g>
</svg>